HIERARCHY
ROOT Hips
{
	OFFSET 0.00000 0.00000 0.00000
	CHANNELS 6 Xposition Yposition Zposition Yrotation Zrotation Xrotation 
	JOINT Lumbar
	{
		OFFSET 0 0 0
		CHANNELS 3 Zrotation Xrotation Yrotation
		JOINT Neck
		{
			OFFSET 0.00 0.2701 0.00
			CHANNELS 3 Zrotation Xrotation Yrotation
			End Site
			{
				OFFSET 0.00 0.1379 0.00
			}
		}
		JOINT RightShoulder
		{
			OFFSET 0.0119 0.2289 0.1181
			CHANNELS 3 Zrotation Xrotation Yrotation
			JOINT RightElbow
			{
				OFFSET 0.00 -0.1475 0.00
				CHANNELS 2 Zrotation Yrotation
				JOINT RightWrist
				{
					OFFSET 0.00 -0.1605 0.00
					CHANNELS 2 Zrotation Xrotation
					End Site
					{
						OFFSET 0.0040 -0.1068 0.0006
					}
				}
			}
		}
		JOINT LeftShoulder
		{
			OFFSET 0.0119 0.2289 -0.1181
			CHANNELS 3 Zrotation Xrotation Yrotation
			JOINT LeftElbow
			{
				OFFSET 0.00 -0.1475 0.00
				CHANNELS 2 Zrotation Yrotation
				JOINT LeftWrist
				{
					OFFSET 0.00 -0.1605 0.00
					CHANNELS 2 Zrotation Xrotation
					End Site
					{
						OFFSET 0.0040 -0.1068 -0.0006
					}
				}
			}
		}
	}
	JOINT RightHip
	{
		OFFSET 0.0316 -0.0424 0.0458
		CHANNELS 3 Zrotation Xrotation Yrotation
		JOINT RightKnee
		{
			OFFSET 0.00 -0.2438 0.00
			CHANNELS 1 Zrotation
			JOINT RightAnkle
			{
				OFFSET 0.00 -0.2449 0.00
				CHANNELS 3 Zrotation Xrotation Yrotation
				End Site
				{
					OFFSET 0.1237 -0.0542 0.0051
				}
			}
		}
	}
	JOINT LeftHip
	{
		OFFSET 0.0316 -0.0424 -0.0458
		CHANNELS 3 Zrotation Xrotation Yrotation
		JOINT LeftKnee
		{
			OFFSET 0.00 -0.2438 0.00
			CHANNELS 1 Zrotation
			JOINT LeftAnkle
			{
				OFFSET 0.00 -0.2449 0.00
				CHANNELS 3 Zrotation Xrotation Yrotation
				End Site
				{
					OFFSET 0.1237 -0.0542 -0.0051
				}
			}
		}
	}
}
MOTION
Frames: 14
Frame Time: 0.02
0.37568 -0.23826 0.01275 179.29211 7.01372 -2.94202 17.2553 10.32109 -9.92939 -14.60774 -27.43498 -0.83018 37.72859 11.40147 64.1711 91.3372 70.20249 55.98761 -5.35498 4.53534 10.17008 -63.86119 105.57239 -74.002 48.34155 4.79228 75.52376 1.35951 -21.27624 -74.89987 -15.40056 -1.02558 -1.43263 76.51611 1.05683 15.4943 -59.16203 -20.40107 0.13823 1.08406
0.37469 -0.23761 0.01271 179.11947 6.49601 -2.92356 17.14775 10.34093 -9.69085 -14.00855 -27.01144 -0.83018 38.60944 11.40232 64.17157 90.98258 68.62615 53.991 -5.38454 4.606 10.55869 -63.70993 105.13758 -74.19396 47.84713 4.73076 75.8634 1.3811 -21.27477 -75.64352 -15.03783 -1.00563 -1.40827 76.68896 1.27946 15.72732 -59.96422 -20.37411 0.13843 1.08294
0.37369 -0.23696 0.01259 178.89257 5.96497 -2.88561 17.01667 10.37457 -9.4809 -13.43192 -26.72175 -0.83019 39.33522 11.40172 64.17103 90.2517 66.71087 51.79966 -5.37414 4.57837 10.96041 -63.44359 104.52572 -74.00586 46.87653 4.66192 76.28891 1.44811 -21.24568 -76.53456 -14.63578 -0.98731 -1.38378 76.83602 1.50704 15.85396 -60.60819 -20.30944 0.18073 1.10682
0.37269 -0.23631 0.01252 178.69285 5.44265 -2.85493 16.89254 10.3992 -9.25941 -12.84967 -26.36734 -0.83019 40.12058 11.40025 64.17077 89.65943 64.90945 49.69268 -5.39839 4.58823 11.34469 -63.2092 103.95368 -73.99453 46.08836 4.59918 76.67001 1.48957 -21.23459 -77.33749 -14.26032 -0.96975 -1.36049 76.99169 1.73025 16.03239 -61.3104 -20.25802 0.20275 1.11844
0.37172 -0.23563 0.01241 178.48225 4.90656 -2.83022 16.78673 10.43483 -9.02998 -12.24739 -26.02376 -0.83019 40.9511 11.40643 64.17344 89.21233 63.27324 47.5945 -5.35476 4.62265 11.77331 -63.05941 103.55282 -73.98143 45.4497 4.52408 77.07436 1.5501 -21.20207 -78.23125 -13.84652 -0.947 -1.33297 77.15921 1.96461 16.20028 -62.06568 -20.22225 0.23064 1.13438
0.3707 -0.23501 0.01235 178.28145 4.39922 -2.789 16.6331 10.4503 -8.82396 -11.69243 -25.68886 -0.83019 41.65036 11.39482 64.16705 88.36648 61.2212 45.43778 -5.44185 4.59068 12.11536 -62.70917 102.75166 -73.87722 44.38647 4.47321 77.44816 1.58275 -21.20708 -78.97084 -13.50307 -0.93514 -1.31406 77.29531 2.17579 16.36237 -62.67524 -20.14525 0.25616 1.14723
0.36956 -0.23453 0.01245 178.12218 3.94545 -2.70354 16.39293 10.41615 -8.68358 -11.26208 -25.38001 -0.83019 42.03243 11.34786 64.15788 86.55571 58.01566 43.13413 -5.9061 4.32701 12.20096 -61.80272 100.90834 -73.59199 42.2397 4.4923 77.74618 1.5219 -21.32166 -79.24039 -13.37303 -0.95141 -1.31829 77.36521 2.32541 16.54694 -62.91293 -19.96303 0.26151 1.14335
0.36838 -0.23411 0.0126 177.97468 3.52575 -2.60288 16.09914 10.3599 -8.56494 -10.8789 -25.07103 -0.83019 42.28591 11.28094 64.13473 84.34636 54.4191 40.78568 -6.50196 4.0136 12.20159 -60.70492 98.6631 -73.22619 39.68653 4.53656 78.006 1.43241 -21.47479 -79.3508 -13.3137 -0.9787 -1.33121 77.4025 2.45082 16.72711 -63.01123 -19.74065 0.26341 1.13577
0.36723 -0.23367 0.01272 177.8208 3.11045 -2.51143 15.80278 10.30748 -8.43109 -10.47429 -24.73924 -0.83019 42.59461 11.21386 64.10452 82.29181 51.059 38.47951 -7.03311 3.7699 12.25137 -59.71356 96.59146 -72.91438 37.33566 4.56765 78.26325 1.35993 -21.61072 -79.53928 -13.21613 -1.00182 -1.34052 77.44524 2.58435 16.90009 -63.17966 -19.53743 0.26896 1.13121
0.36606 -0.23319 0.01286 177.66856 2.61377 -2.40937 15.61541 10.28079 -8.31949 -10.06969 -24.50436 -0.83019 42.91438 11.18405 64.13409 80.34134 47.43967 36.07199 -7.58336 3.32261 12.25887 -58.63232 94.55923 -72.53176 34.89186 4.60296 78.60456 1.27285 -21.74477 -79.70909 -13.14301 -1.02154 -1.34845 77.52493 2.72926 17.10618 -63.31505 -19.32985 0.2674 1.12203
0.36491 -0.23279 0.01297 177.51745 2.29106 -2.32633 15.19349 10.1963 -8.16785 -9.67689 -24.07107 -0.83019 43.17891 11.07396 64.03184 78.07689 44.27109 33.86988 -8.12584 3.29047 12.33186 -57.69895 92.34251 -72.26296 32.55397 4.6391 78.76442 1.20792 -21.89173 -79.87756 -13.03618 -1.05085 -1.36124 77.52236 2.84586 17.2462 -63.48674 -19.12128 0.27901 1.12105
0.36381 -0.23262 0.01297 177.35787 2.47309 -2.29712 14.09469 9.94709 -7.88713 -9.29726 -23.04462 -0.83021 43.35432 10.72866 63.60252 75.11091 42.45361 32.22575 -8.61251 4.40287 12.62576 -57.18159 89.79643 -72.49543 30.58691 4.64178 78.39965 1.21863 -22.06964 -80.08484 -12.82039 -1.10467 -1.38592 77.2834 2.87889 17.18216 -63.80667 -18.9292 0.33017 1.14545
0.36272 -0.23253 0.01294 177.20088 2.82306 -2.28803 12.76949 9.64227 -7.56745 -8.9291 -21.82603 -0.83023 43.47324 10.30621 63.03443 71.83412 41.10489 30.79397 -9.08722 5.93719 12.98485 -56.82738 87.06541 -72.81585 28.74689 4.65041 77.85939 1.25104 -22.2585 -80.29483 -12.56837 -1.16764 -1.41508 76.96649 2.8858 17.05578 -64.16627 -18.73613 0.39416 1.17783
0.36164 -0.23238 0.01292 177.04876 3.07465 -2.27147 11.57605 9.36988 -7.27444 -8.5609 -20.72485 -0.83024 43.59808 9.93178 62.50829 68.65415 39.53369 29.28006 -9.56927 7.28889 13.30141 -56.42494 84.36482 -72.98817 26.86472 4.67524 77.42059 1.2683 -22.43935 -80.50051 -12.33198 -1.22594 -1.44174 76.69625 2.91275 16.97429 -64.49925 -18.53731 0.45037 1.2051
